<svg version="1.1" id="Layer_1" xmlns="http://www.w3.org/2000/svg" xmlns:xlink="http://www.w3.org/1999/xlink" x="0px" y="0px"
	 width="100%" viewBox="0 0 1024 1024" enable-background="new 0 0 1024 1024" xml:space="preserve">
<path fill="#009689" opacity="1.000000" stroke="none" 
	d="
M253.030457,519.671631 
	C271.071686,520.959839 288.622223,522.452332 306.200623,523.457336 
	C317.155914,524.083557 328.102661,524.724487 339.039337,525.627014 
	C345.997864,526.201233 353.024811,526.090454 359.945862,526.916748 
	C363.533417,527.345032 364.711945,526.011230 365.379028,523.021545 
	C370.552368,499.836090 379.085876,477.831299 388.990173,456.323700 
	C400.465912,431.403656 414.609985,408.102386 431.637177,386.569946 
	C435.806122,381.297913 435.396667,379.848419 428.756378,377.696381 
	C410.393707,371.745117 391.979889,365.951080 373.630646,359.959076 
	C358.785248,355.111298 352.943390,341.743073 359.778870,328.377106 
	C364.096283,319.934998 372.162292,317.500305 380.611694,316.745483 
	C406.545746,314.428711 432.562103,316.203247 458.537842,315.684235 
	C462.702454,315.601013 466.876617,315.538635 471.034698,315.726013 
	C474.624756,315.887787 476.258820,314.853699 476.845795,310.861969 
	C480.342987,287.078766 483.274689,263.209900 487.618530,239.550766 
	C490.479645,223.967606 500.293640,215.283356 515.321167,215.692047 
	C523.523743,215.915115 529.495850,219.951721 533.543274,226.964310 
	C538.572632,235.678452 539.889099,245.448273 541.310974,255.144073 
	C544.101990,274.176239 546.749023,293.229706 549.384827,312.284180 
	C549.881897,315.877441 552.399719,315.687286 554.948669,315.686340 
	C571.447388,315.680237 587.946350,315.627319 604.444824,315.688507 
	C618.097656,315.739166 631.740601,315.525513 645.395935,316.530823 
	C662.849182,317.815735 673.428650,333.414734 666.639465,348.493530 
	C664.189026,353.935944 659.709534,357.092590 654.445801,358.914185 
	C639.030945,364.248596 623.500061,369.247559 608.014343,374.377380 
	C602.035278,376.358032 596.055725,378.336945 589.753906,380.423431 
	C590.261780,381.475861 590.426270,382.120667 590.813538,382.575897 
	C620.978271,418.033539 641.020142,458.913879 655.360535,502.865326 
	C657.579041,509.664612 659.867859,516.436707 661.407898,523.430481 
	C661.993774,526.091125 663.200073,527.064087 666.261475,526.897278 
	C693.821533,525.394775 721.312439,522.901489 748.881226,521.452881 
	C768.620789,520.415649 788.349182,518.866699 808.080261,517.521545 
	C828.310425,516.142517 848.541138,514.795227 868.772766,513.451721 
	C874.415039,513.077026 880.085632,513.135437 885.689819,512.533691 
	C900.102112,510.986237 913.105408,524.464478 909.969360,542.691162 
	C907.989624,554.197815 900.012878,560.147766 890.137451,563.815002 
	C875.163330,569.375854 859.930603,574.237976 844.825500,579.448547 
	C826.571655,585.745300 808.334900,592.091492 790.097107,598.434448 
	C789.053284,598.797424 788.066650,599.324768 786.826538,599.876648 
	C822.152771,621.124268 822.385620,659.145508 810.107483,680.027588 
	C796.514771,703.145447 769.010132,713.745911 743.221802,705.244202 
	C727.078430,699.922241 715.729004,689.199463 709.098145,673.684143 
	C702.497375,658.239502 703.418396,642.600891 709.750793,626.846191 
	C706.192322,626.263428 703.885132,627.842285 701.496948,628.695618 
	C691.628967,632.221436 681.927795,636.240662 671.660156,638.549622 
	C668.214050,639.324463 666.528992,641.444946 665.447998,644.847229 
	C647.529053,701.243225 608.280884,733.732910 551.367554,746.385254 
	C540.929138,748.705872 530.270264,750.020691 519.717285,749.983643 
	C471.608459,749.814941 427.184753,739.345825 393.052795,701.991516 
	C377.954681,685.468079 367.412354,666.367798 360.867157,645.045593 
	C359.759003,641.435669 357.991058,639.538147 354.191345,638.773499 
	C343.531311,636.628296 333.742523,631.812195 323.538635,628.255371 
	C321.738129,627.627808 320.067078,626.185364 317.683838,627.055481 
	C327.229889,660.655029 321.020447,688.596008 286.792084,703.889832 
	C263.979675,714.082764 236.806915,707.550354 222.553635,688.345703 
	C197.377274,654.423462 206.622543,625.126526 237.656845,600.293274 
	C236.304962,597.815125 233.974609,597.611877 232.014618,596.937012 
	C204.320465,587.402710 176.580338,578.001282 148.916763,568.379456 
	C142.167664,566.031982 135.507339,563.313110 129.066330,560.222778 
	C118.893776,555.342102 114.278648,541.879089 117.906898,528.938049 
	C121.019913,517.834778 130.304779,511.631012 142.107727,512.404114 
	C160.685349,513.620972 179.282074,514.546265 197.859756,515.762451 
	C216.097443,516.956299 234.321487,518.358948 253.030457,519.671631 
M454.088806,727.357300 
	C472.034027,734.040283 490.768585,737.047913 509.733276,737.458740 
	C529.578247,737.888550 549.308167,735.384155 568.071716,728.515747 
	C611.146545,712.748169 640.951294,683.732300 653.682617,639.094116 
	C661.723328,610.902039 660.486450,582.063293 654.964844,553.617554 
	C646.634949,510.703827 632.508362,469.765411 609.904419,432.074799 
	C597.006958,410.569153 582.924988,389.963654 563.176331,373.974121 
	C549.329407,362.762878 533.534912,356.006561 515.647827,355.431915 
	C490.836029,354.634827 470.348297,364.662903 453.375916,382.244415 
	C428.261505,408.260101 410.322418,439.040314 396.261932,471.977936 
	C381.389862,506.816711 371.306335,543.072754 368.107666,581.073059 
	C366.787140,596.760986 366.551819,612.427185 369.740936,627.756348 
	C379.724640,675.745300 407.716827,708.930908 454.088806,727.357300 
M354.723328,601.476318 
	C354.629181,582.779480 356.629333,564.289429 360.394287,545.994080 
	C361.254272,541.815002 360.112396,539.650269 355.660492,539.392151 
	C344.537994,538.747009 333.422150,537.987183 322.303436,537.276123 
	C310.850494,536.543640 299.394592,535.855103 287.944885,535.075378 
	C264.887451,533.505066 241.833603,531.882629 218.777802,530.288330 
	C207.334000,529.496887 195.893082,528.656799 184.443848,527.952515 
	C169.839188,527.054016 155.287460,525.178101 140.627884,525.325439 
	C132.708481,525.405029 127.957314,531.845398 129.633224,539.633484 
	C131.084763,546.378967 135.960831,549.484619 141.880402,551.549255 
	C161.208847,558.290588 180.542221,565.017883 199.877594,571.739380 
	C245.150711,587.477661 290.705536,602.406311 335.654297,619.078796 
	C342.145111,621.486389 348.534546,624.331787 356.003662,625.642273 
	C355.562592,617.648499 355.143677,610.056641 354.723328,601.476318 
M671.343018,590.510742 
	C671.866943,602.104065 670.532471,613.654541 670.022827,625.562744 
	C675.682190,624.613525 680.524658,622.900757 685.334229,621.113159 
	C713.263123,610.732971 741.765320,602.020813 769.763184,591.811523 
	C807.605225,578.012573 845.761292,565.075012 883.775635,551.747864 
	C887.916748,550.296021 891.747437,548.257263 894.504578,544.719849 
	C897.691528,540.630981 897.619690,535.997192 895.902039,531.456604 
	C894.366333,527.397217 890.959473,525.773193 886.709534,525.992065 
	C870.756042,526.813538 854.796509,527.542236 838.853882,528.540405 
	C820.929016,529.662659 803.025024,531.114258 785.102783,532.283142 
	C767.338684,533.441711 749.560547,534.381592 731.793701,535.500061 
	C712.373108,536.722473 692.965454,538.164795 673.537903,539.256348 
	C665.326111,539.717590 665.354309,539.522095 666.787109,547.439758 
	C669.304443,561.349915 671.302734,575.330872 671.343018,590.510742 
M532.907349,285.285522 
	C532.151367,279.858948 531.543213,274.406769 530.607910,269.011292 
	C528.794067,258.547302 528.045898,247.857391 524.535583,237.741043 
	C522.164185,230.907196 517.618591,227.780655 511.549500,228.317810 
	C506.622040,228.753922 502.714752,232.818710 501.425262,239.195282 
	C499.944244,246.518845 498.463379,253.851334 497.315918,261.231781 
	C493.923309,283.052429 490.608063,304.886139 487.456268,326.742615 
	C486.523468,333.211212 484.835907,339.616364 484.757172,346.477814 
	C485.868683,346.477814 486.558624,346.631104 487.151062,346.455475 
	C503.157593,341.710754 519.212708,341.441986 535.395752,345.603943 
	C539.636414,346.694519 541.298279,344.900604 540.624756,339.923706 
	C538.197571,321.988617 535.616577,304.074402 532.907349,285.285522 
M304.490479,633.054382 
	C296.498016,615.954224 280.717255,610.504456 264.167847,608.626587 
	C241.424820,606.045776 217.407242,631.862854 222.281372,658.081543 
	C225.640167,676.148987 236.254425,688.271667 253.732559,693.267151 
	C271.891174,698.457275 287.373505,692.584961 299.203827,678.192322 
	C310.244476,664.760315 311.749023,649.673950 304.490479,633.054382 
M804.562866,647.041748 
	C804.232910,645.414795 803.900330,643.788330 803.573486,642.160767 
	C799.760681,623.176636 780.737305,607.619080 761.905518,608.393860 
	C753.904724,608.723022 747.060913,612.977844 739.789978,615.788452 
	C731.317993,619.063354 725.808167,625.128540 722.062073,633.132568 
	C718.383667,640.991882 717.187622,649.103638 718.220703,657.807190 
	C721.045654,681.606262 746.339478,699.362488 769.716125,694.077148 
	C787.937073,689.957520 806.144836,672.333008 804.562866,647.041748 
M455.417816,362.884094 
	C456.605652,361.971558 457.673676,360.798157 459.000702,360.188660 
	C467.857025,356.120941 471.468353,349.118561 472.611084,339.571472 
	C473.923035,328.610870 474.416138,328.546661 463.208130,328.395599 
	C436.740204,328.038788 410.283936,328.563293 383.828369,329.281067 
	C380.768982,329.364075 377.869690,329.963043 375.179871,331.351257 
	C372.045441,332.968903 369.683624,335.530212 369.601349,339.089752 
	C369.515869,342.785858 372.130402,345.104553 375.348022,346.544861 
	C377.314880,347.425323 379.380707,348.096252 381.428467,348.782593 
	C399.238190,354.751404 417.523560,359.418854 434.821838,366.738373 
	C442.914520,370.162689 449.169312,370.361572 455.417816,362.884094 
M553.333618,337.435547 
	C554.020569,341.693146 554.746399,345.945007 555.376892,350.210938 
	C555.661865,352.139404 556.409546,353.697723 558.127136,354.711487 
	C564.890564,358.703400 571.076172,363.484711 577.042297,368.565460 
	C578.488159,369.796814 579.904480,370.611053 581.996338,369.794189 
	C603.394165,361.438446 625.563477,355.379608 647.270630,347.941772 
	C651.709717,346.420776 655.747498,344.280121 655.725464,338.783020 
	C655.708252,334.479614 651.641357,330.877197 645.839966,329.640228 
	C644.391235,329.331299 642.866272,329.301788 641.374695,329.284790 
	C627.887512,329.131073 614.398499,329.093048 600.913025,328.853851 
	C586.937500,328.605957 572.957397,327.725830 558.994446,328.895081 
	C551.796570,329.497803 551.812256,329.684937 553.333618,337.435547 
z"/>
<path fill="#009689" opacity="1.000000" stroke="none" 
	d="
M735.340759,311.510132 
	C745.415466,292.754333 761.563782,285.339966 781.564819,286.899292 
	C800.378540,288.366058 813.933167,298.214691 820.524109,316.426544 
	C821.656494,319.555359 823.380798,320.394531 826.685120,320.778290 
	C845.072021,322.913666 859.110718,337.820709 858.450256,357.254395 
	C857.876770,374.131744 844.964661,388.039124 826.957336,389.315552 
	C796.374573,391.483337 765.734619,390.121246 735.122742,390.116852 
	C721.365356,390.114868 709.701416,384.881744 702.790100,372.127441 
	C692.438171,353.023590 701.996399,329.265076 723.073792,323.108032 
	C729.646240,321.188080 733.575562,318.230652 735.340759,311.510132 
M731.909607,376.678345 
	C736.564209,376.826385 741.221191,376.920746 745.872864,377.133057 
	C757.677979,377.671906 769.478638,377.486359 781.290833,377.311768 
	C796.054749,377.093506 810.837524,377.885925 825.580688,376.588348 
	C837.546753,375.535156 846.943787,364.552704 845.576111,353.396545 
	C844.168701,341.916901 831.823853,331.985657 820.821167,333.481628 
	C812.821594,334.569275 811.326599,333.570129 809.508789,325.702484 
	C805.477966,308.256866 789.334351,296.884521 771.402893,300.176331 
	C755.750305,303.049805 747.746338,313.086853 743.616333,327.406464 
	C741.827698,333.607758 740.496399,334.556946 734.120239,334.379425 
	C722.935730,334.068085 712.346313,343.963684 711.508545,355.509552 
	C710.803589,365.225037 720.166077,375.360443 731.909607,376.678345 
z"/>
<path fill="#009689" opacity="1.000000" stroke="none" 
	d="
M218.000183,468.341309 
	C207.531952,468.384644 197.634995,468.078705 187.703857,466.583618 
	C169.573364,463.854034 161.503204,437.820251 170.394760,424.222504 
	C175.964890,415.704254 183.570328,410.147736 193.403229,407.930817 
	C196.495682,407.233582 197.924820,405.857422 198.793762,403.010162 
	C201.331299,394.695465 206.220749,387.940521 212.447784,381.882080 
	C229.343491,365.443665 259.268250,370.980988 271.000061,388.303253 
	C271.280029,388.716583 271.605042,389.104645 271.842987,389.540497 
	C275.599884,396.422913 280.567902,400.435669 288.917206,402.517365 
	C305.970123,406.769135 314.953949,423.070679 312.224152,440.964630 
	C310.000916,455.538147 294.299347,468.291321 278.441986,468.322083 
	C258.461456,468.360901 238.480759,468.337646 218.000183,468.341309 
M190.056961,453.643982 
	C193.262894,454.676270 196.571793,454.938568 199.911865,454.944031 
	C225.064453,454.985046 250.217056,455.047119 275.369598,455.031097 
	C278.852722,455.028900 282.338226,454.787415 285.673706,453.468384 
	C295.223480,449.691986 301.337860,438.946594 298.997070,429.910339 
	C296.078308,418.642792 287.051758,412.626648 275.481903,414.251831 
	C271.249390,414.846405 268.334625,413.254974 266.972107,409.131012 
	C265.648254,405.124146 263.408752,401.632385 261.002960,398.219879 
	C246.025101,376.973938 223.035446,384.949097 214.151550,401.296387 
	C211.810181,405.604767 210.757950,410.277374 209.648117,414.980560 
	C208.418716,420.190491 205.676437,421.884949 200.598740,420.969971 
	C192.400406,419.492737 183.211456,425.090302 180.587921,433.159943 
	C177.829834,441.643463 181.148590,449.396179 190.056961,453.643982 
z"/>
<path fill="#009689" opacity="1.000000" stroke="none" 
	d="
M487.515472,565.261353 
	C512.117188,557.453186 535.115234,559.914124 556.520996,573.899841 
	C564.289246,578.975281 570.440308,585.765320 574.781372,594.037537 
	C577.311462,598.858826 576.691772,602.738770 573.344238,604.646912 
	C569.974487,606.567810 566.098572,605.219299 563.369934,600.758362 
	C552.424133,582.863525 535.633240,574.196960 515.551941,573.694092 
	C494.569641,573.168823 476.630951,581.313110 464.138153,599.180176 
	C463.189178,600.537354 462.391632,602.091736 461.171967,603.148499 
	C458.939758,605.082520 456.321808,606.144714 453.389313,604.536621 
	C450.620697,603.018555 450.115479,600.422302 450.584717,597.645264 
	C451.517609,592.124207 455.189606,588.100769 458.703857,584.161316 
	C466.497284,575.425049 476.089111,569.270264 487.515472,565.261353 
z"/>
<path fill="#009689" opacity="1.000000" stroke="none" 
	d="
M558.335632,476.576080 
	C567.459412,486.853516 578.489319,492.059326 591.993225,491.693268 
	C593.322266,491.657227 594.655151,491.664520 595.983521,491.718842 
	C599.279480,491.853577 601.255005,493.797821 601.985657,496.782837 
	C602.780640,500.031006 600.949890,502.216187 598.194580,503.580078 
	C594.667542,505.325897 590.828003,505.616486 586.990967,505.278046 
	C570.048584,503.783539 556.023376,496.993866 546.311401,482.540497 
	C544.373535,479.656586 543.941711,476.656982 546.205444,473.755951 
	C548.276672,471.101593 551.138123,471.269501 553.939514,472.145294 
	C555.947693,472.773132 556.942017,474.682098 558.335632,476.576080 
z"/>
<path fill="#009689" opacity="1.000000" stroke="none" 
	d="
M466.884277,495.980865 
	C455.800171,502.911438 444.218811,506.106720 431.438202,504.382996 
	C427.211121,503.812897 424.495667,502.028931 424.717651,497.421051 
	C424.933411,492.943298 427.787720,491.461731 431.840149,491.667267 
	C447.636719,492.468414 460.390900,486.886444 469.856628,473.973724 
	C472.187347,470.794281 475.749237,470.790802 478.805908,472.779053 
	C482.189026,474.979706 482.052551,478.444427 480.353729,481.657623 
	C477.254211,487.520172 472.494415,491.926666 466.884277,495.980865 
z"/>
<path fill="#009689" opacity="1.000000" stroke="none" 
	d="
M558.675049,535.560974 
	C558.660950,530.616577 558.525757,526.118103 558.694092,521.630981 
	C558.911011,515.848450 562.864075,511.197693 567.733215,510.656189 
	C573.429810,510.022675 577.719727,513.166382 579.249695,519.326111 
	C580.628296,524.876404 580.874084,530.542542 579.619507,536.121887 
	C578.102600,542.867798 574.249084,546.410767 569.121216,546.322144 
	C564.010071,546.233826 560.351562,542.618164 558.675049,535.560974 
z"/>
<path fill="#009689" opacity="1.000000" stroke="none" 
	d="
M458.629150,546.244690 
	C451.205719,546.047791 447.741791,542.846741 446.563629,535.917419 
	C445.633392,530.446289 445.380890,525.017212 446.684906,519.596069 
	C448.126556,513.602600 452.110565,510.346954 457.521912,510.621124 
	C462.376343,510.867096 466.648895,514.814453 467.135895,520.443787 
	C467.592529,525.722412 467.662079,531.117615 467.101715,536.376282 
	C466.602722,541.059326 463.917297,544.713806 458.629150,546.244690 
z"/>
<path fill="#009689" opacity="1.000000" stroke="none" 
	d="
M254.191360,624.814453 
	C272.225739,619.269592 288.100037,626.942017 292.482849,643.565308 
	C295.497925,655.001038 293.180481,665.585693 283.856873,673.494934 
	C274.844788,681.140076 264.341064,682.793030 253.492447,678.002991 
	C242.292130,673.057678 236.889618,663.541138 236.889725,651.698486 
	C236.889832,639.627991 242.706757,630.411926 254.191360,624.814453 
M275.985229,661.441895 
	C280.259613,656.216736 280.813202,650.621094 277.347870,644.827209 
	C274.356659,639.826111 269.779480,637.363586 263.967468,637.916321 
	C256.873718,638.591003 252.432587,642.980042 250.908005,650.284485 
	C249.798569,655.599976 252.634705,661.502808 257.792816,664.613708 
	C263.693329,668.172241 269.341858,667.332336 275.985229,661.441895 
z"/>
<path fill="#009689" opacity="1.000000" stroke="none" 
	d="
M783.134277,632.921326 
	C792.892334,646.170776 791.709229,662.792969 780.537720,672.903503 
	C769.601440,682.801147 752.747681,682.991333 742.353638,673.334351 
	C730.221130,662.062256 729.529358,642.771423 740.845825,631.285156 
	C752.669556,619.283997 770.868530,619.870422 783.134277,632.921326 
M750.547546,661.869385 
	C757.635864,668.199585 766.016357,668.310852 771.759583,662.150879 
	C777.191284,656.325012 777.053589,647.645325 771.439087,641.943115 
	C766.149048,636.570312 758.151001,636.234253 752.063843,641.128906 
	C746.238525,645.812988 745.447632,653.822876 750.547546,661.869385 
z"/>
</svg>