<svg version="1.1" id="Layer_1" xmlns="http://www.w3.org/2000/svg" xmlns:xlink="http://www.w3.org/1999/xlink" x="0px" y="0px"
	 width="100%" viewBox="0 0 1024 1024" enable-background="new 0 0 1024 1024" xml:space="preserve">
<path fill="#000000" opacity="1.000000" stroke="none" 
	d="
M457.745819,614.479187 
	C458.453613,611.689697 458.183075,610.227112 455.033569,610.615540 
	C434.267426,613.177002 413.513092,615.862854 392.709045,618.077515 
	C379.325348,619.502258 365.879028,620.565063 352.433075,621.129089 
	C329.150391,622.106018 305.894562,623.978699 282.551636,623.324829 
	C250.856934,622.437012 219.512817,619.374023 189.190903,609.358276 
	C172.108856,603.715698 156.192368,595.948242 142.508362,584.047241 
	C130.667130,573.748901 121.426842,561.795227 118.590584,545.885803 
	C115.778374,530.111206 118.449608,515.363708 127.765007,502.181366 
	C134.143753,493.154694 141.716705,485.108154 150.734161,478.686005 
	C157.529358,473.846527 162.990250,467.988678 167.309372,460.936584 
	C178.163345,443.214600 190.827682,426.990448 206.705399,413.429871 
	C234.631287,389.579468 266.325195,374.656128 303.200317,370.401428 
	C326.658142,367.694855 350.039673,368.015167 373.457581,368.916199 
	C391.560181,369.612701 409.643097,370.969879 427.748199,371.864441 
	C450.984161,373.012573 474.177917,375.004669 497.393677,376.576447 
	C513.648987,377.676941 529.920349,378.552643 546.166992,379.763855 
	C565.882446,381.233673 585.573853,383.023926 605.286255,384.537689 
	C620.533386,385.708588 635.799377,386.632172 651.052063,387.734222 
	C659.499695,388.344604 668.015991,388.610931 676.349670,389.965454 
	C681.337280,390.776123 683.655518,388.688782 686.043274,385.159393 
	C697.991638,367.498779 710.021729,349.893433 722.048157,332.285736 
	C729.941284,320.729370 737.866089,309.194550 745.796997,297.664062 
	C753.130676,287.001740 762.566528,279.231232 775.458862,276.273865 
	C776.587158,276.015015 777.746521,275.701996 778.887512,275.716736 
	C792.874451,275.897247 806.869080,276.031250 820.848083,276.216309 
	C835.137939,276.405518 838.236450,286.172943 836.792114,296.643066 
	C834.094238,316.201141 830.211975,335.595520 826.838928,355.060852 
	C823.666138,373.370544 820.672302,391.713470 817.241089,409.974426 
	C816.395569,414.474365 818.121338,416.101593 821.793396,417.745514 
	C839.052490,425.472076 851.629272,437.670135 854.546265,456.976288 
	C855.756348,464.984711 859.392090,467.655579 866.562683,468.983002 
	C873.723877,470.308624 880.681335,472.798187 887.674622,474.951172 
	C895.862183,477.471863 899.251465,481.529755 899.345703,488.509979 
	C899.452576,496.426331 895.968445,501.543243 888.032593,504.125000 
	C874.251099,508.608582 860.052490,511.609436 845.816406,514.014526 
	C838.475952,515.254578 831.093262,511.876678 823.892883,510.056458 
	C818.875610,508.788116 815.557922,509.357941 811.508667,512.912964 
	C802.908875,520.463135 792.235840,524.784851 781.675842,528.827332 
	C752.450623,540.014954 723.007507,550.612488 692.979309,559.499573 
	C690.931396,560.105652 688.961304,560.974976 686.054138,562.057312 
	C692.146057,565.524353 697.535522,568.634338 702.964294,571.674011 
	C728.836609,586.160461 754.660278,600.729919 779.845215,616.397583 
	C781.117920,617.189453 782.312256,618.122742 783.633118,618.819397 
	C799.685608,627.286255 793.829895,647.074036 783.308105,653.385254 
	C771.737183,660.325745 759.319946,664.704285 745.885010,666.388428 
	C718.352966,669.839600 692.432983,662.704041 666.624634,654.678650 
	C646.611755,648.455322 626.600342,642.227356 606.603027,635.954346 
	C603.865356,635.095581 601.505188,634.837708 599.465271,637.472839 
	C585.319336,655.747131 566.254272,666.338379 544.422852,672.608398 
	C533.713440,675.684143 522.996643,678.729553 512.264771,681.725098 
	C487.401093,688.665161 465.918579,672.293884 459.218750,651.743591 
	C455.252350,639.577576 454.762848,627.294922 457.745819,614.479187 
M786.633667,449.694672 
	C802.717285,454.056030 818.920898,457.854858 835.739990,460.905029 
	C834.140625,449.130493 827.333923,442.306702 818.173462,437.258179 
	C813.366333,434.608826 807.996643,433.021759 803.597656,429.608673 
	C798.994568,426.037231 795.819031,421.634857 797.017151,415.485382 
	C804.544800,376.848694 810.519104,337.941772 817.393982,299.192200 
	C818.080139,295.325073 816.729492,294.095306 812.991272,294.155426 
	C804.160706,294.297424 795.316345,294.457397 786.496704,294.116577 
	C779.822083,293.858673 774.520813,296.240723 769.863342,300.705536 
	C766.968018,303.481049 764.238953,306.395599 761.965942,309.707642 
	C754.800476,320.148499 747.603027,330.567780 740.506958,341.055664 
	C727.808472,359.823822 715.164307,378.628815 702.518982,397.432892 
	C696.648499,406.162537 689.335999,411.218628 678.079651,408.587189 
	C673.283508,407.465973 668.165161,407.718872 663.192505,407.357788 
	C648.104736,406.262299 633.012085,405.230804 617.929871,404.064911 
	C598.374817,402.553284 578.833069,400.866455 559.275696,399.386780 
	C543.859863,398.220428 528.427551,397.271606 513.004883,396.193512 
	C490.284271,394.605316 467.587585,392.404694 444.839935,391.550293 
	C422.881592,390.725525 400.988342,388.948364 379.036072,388.067993 
	C354.566071,387.086639 330.194183,386.464081 305.757904,389.151215 
	C270.012726,393.082001 240.212250,409.057159 214.049438,432.822754 
	C200.069595,445.521637 190.232285,461.459351 180.029587,477.083496 
	C176.270721,482.839691 172.263336,488.075470 166.027466,491.662354 
	C159.244370,495.563934 153.439957,500.940369 148.138214,506.771637 
	C133.696014,522.656372 132.579102,541.997681 145.310608,559.147766 
	C155.705383,573.150085 170.138290,581.523865 185.968613,587.914551 
	C217.526367,600.654236 250.799927,603.598511 284.285339,604.525208 
	C312.423462,605.303955 340.525818,603.033447 368.617737,601.540222 
	C380.053741,600.932373 391.459991,599.601501 402.850250,598.334534 
	C418.692657,596.572327 434.526062,594.700317 450.323212,592.577087 
	C455.510284,591.879883 461.084473,592.339783 466.783081,588.903137 
	C459.052246,585.090271 452.221771,581.700378 445.935883,577.328369 
	C431.653137,567.394470 432.305847,554.683594 447.404633,546.145020 
	C463.773438,536.888306 481.264557,530.594543 499.325439,525.730042 
	C524.906860,518.839905 550.949524,514.575500 577.373718,512.893921 
	C586.947876,512.284607 596.394592,512.002197 605.444641,517.363953 
	C622.636169,527.549133 640.371887,536.813416 657.825500,546.560730 
	C660.912292,548.284607 663.737488,548.738342 667.272644,547.740784 
	C706.402344,536.698914 744.569092,522.841858 782.571045,508.503479 
	C785.514526,507.392853 788.726807,506.341492 791.130371,503.058411 
	C789.049500,502.360626 787.532288,501.730072 785.955383,501.341553 
	C767.230957,496.728333 748.498596,492.147278 729.766235,487.566437 
	C720.837646,485.383057 715.802002,479.763489 715.697937,471.834869 
	C715.593323,463.862610 720.363831,458.112427 729.379150,455.737122 
	C738.380005,453.365601 747.472839,451.340729 756.461792,448.927277 
	C766.348083,446.272980 776.111877,445.751343 786.633667,449.694672 
M612.716614,542.853394 
	C607.933960,540.143005 603.027466,537.625854 598.406494,534.663330 
	C594.452759,532.128601 590.374939,531.179565 585.696045,531.237305 
	C573.853638,531.383667 562.124268,532.591309 550.439697,534.321716 
	C522.703613,538.429138 495.537781,544.765869 469.555756,555.550232 
	C465.222778,557.348755 460.959656,559.376831 456.661469,562.550171 
	C464.342621,567.357910 471.791718,571.029785 479.660431,573.727661 
	C531.772217,591.595642 584.087158,608.858582 636.548279,625.667175 
	C665.333496,634.889954 693.665222,645.943665 724.265625,648.303955 
	C740.223633,649.534912 755.486389,647.717834 769.667175,639.838989 
	C771.622986,638.752380 773.976135,637.876160 774.376709,634.346924 
	C721.713684,602.477844 667.694275,572.568298 612.716614,542.853394 
M779.317139,466.352966 
	C775.724182,465.823364 772.287964,463.822571 768.581482,464.609680 
	C759.344543,466.571228 750.157043,468.765686 739.684570,471.155273 
	C741.449341,471.617828 742.010925,471.762054 742.570923,471.912231 
	C769.564514,479.150909 796.965088,484.786530 823.930786,492.050110 
	C838.175049,495.886993 851.704407,495.942139 865.529724,491.653290 
	C867.288208,491.107788 869.367615,491.151367 871.202087,488.754913 
	C840.682800,480.271423 810.207520,474.187531 779.317139,466.352966 
M476.062164,636.684448 
	C476.692780,643.635010 478.872925,650.021790 483.210480,655.543091 
	C492.114990,666.877625 505.750275,666.175232 513.473755,654.036377 
	C521.093140,642.061096 520.735413,622.080322 512.691589,610.348267 
	C506.332794,601.073792 489.018860,599.859863 482.792999,608.461487 
	C476.902252,616.600281 474.871796,625.882629 476.062164,636.684448 
M539.184387,629.832031 
	C539.917908,638.495483 537.440491,646.791992 535.429810,656.105225 
	C552.508667,650.529846 568.372192,645.193237 579.984436,630.365784 
	C565.541931,624.961975 551.759460,620.908020 537.225220,616.537415 
	C537.921875,621.176941 538.504272,625.055664 539.184387,629.832031 
z"/>
<path fill="#000000" opacity="1.000000" stroke="none" 
	d="
M596.258362,826.051025 
	C568.671387,814.456055 559.917175,783.644165 574.205811,760.181641 
	C580.488831,749.864746 590.131104,744.277649 601.665222,741.895874 
	C606.371948,740.923950 609.205078,738.663879 611.200623,734.258850 
	C617.238159,720.931458 627.296326,711.190247 639.620605,703.567566 
	C661.486023,690.043518 693.908447,696.494751 708.933044,718.660034 
	C711.546021,722.514832 714.286194,726.369995 716.231567,730.566284 
	C718.162842,734.732056 720.876831,735.856140 725.251587,735.775635 
	C738.741089,735.527283 750.296753,740.583435 759.883057,749.930786 
	C775.782837,765.434326 776.813171,792.600342 762.271362,809.487976 
	C751.490845,822.007568 738.401917,828.719849 721.277893,828.467896 
	C685.140564,827.936157 648.989380,828.316040 612.843994,828.409363 
	C607.304749,828.423645 601.875854,828.095703 596.258362,826.051025 
M658.007751,715.391357 
	C653.642151,716.607178 649.635376,718.595703 645.762939,720.923279 
	C633.304993,728.411682 626.799622,740.184387 622.364014,753.418640 
	C621.465149,756.100586 620.560608,757.967468 617.144653,758.406494 
	C607.141357,759.692383 598.836243,763.831055 594.578003,773.778076 
	C593.663757,775.913818 592.459412,777.926514 591.369141,779.985474 
	C586.047668,790.034973 588.648254,799.835144 598.099121,806.045715 
	C603.641235,809.687744 609.762451,810.675537 616.185364,810.672180 
	C651.319214,810.653564 686.453308,810.564514 721.586853,810.661865 
	C730.947632,810.687805 738.919434,807.429382 745.616211,801.235535 
	C753.901001,793.572754 756.652771,783.964233 753.715454,773.043579 
	C750.977112,762.862671 744.034851,756.463379 733.733032,755.297058 
	C726.344360,754.460510 718.632812,753.401001 711.210754,755.691284 
	C707.744934,756.760681 706.397949,755.549500 705.680725,752.248047 
	C703.700073,743.130981 699.026367,735.223816 693.734863,727.736938 
	C685.085876,715.499634 672.753357,712.976013 658.007751,715.391357 
z"/>
<path fill="#000000" opacity="1.000000" stroke="none" 
	d="
M342.015625,329.317688 
	C308.870789,330.461517 276.208466,330.307312 243.549881,330.279388 
	C222.354340,330.261292 202.828537,315.115967 198.197144,295.475677 
	C192.602921,271.752350 208.492233,245.958130 232.126312,240.617264 
	C235.782623,239.791000 237.680573,237.845016 239.119507,234.431366 
	C247.730865,214.002411 262.779175,200.470474 284.497711,195.993805 
	C309.490540,190.842239 333.436890,199.471695 346.881927,225.309341 
	C350.633209,232.518265 354.714081,235.757950 362.860046,237.024902 
	C382.919952,240.144836 398.542297,260.873718 399.512024,281.358856 
	C400.645447,305.302826 380.565186,325.160950 361.464539,328.811646 
	C355.205750,330.007874 348.829407,329.060638 342.015625,329.317688 
M333.224731,237.347092 
	C331.691376,234.772842 330.336395,232.069977 328.590942,229.648605 
	C323.494385,222.578308 318.302338,215.300140 309.039642,213.526489 
	C290.292908,209.936783 274.537933,215.270340 262.284454,230.197861 
	C257.551910,235.963165 254.748016,242.720001 252.109100,249.576035 
	C251.201050,251.935196 250.285995,254.581635 247.309845,254.736847 
	C241.987534,255.014450 237.464233,257.711548 232.605347,259.304230 
	C221.118484,263.069519 212.779526,276.601379 214.457901,287.886719 
	C216.398788,300.937439 227.926208,311.668213 240.805923,311.710510 
	C278.465912,311.834167 316.127625,311.855499 353.786682,311.611938 
	C368.737091,311.515259 382.005707,296.929749 381.802155,281.979553 
	C381.628021,269.188599 369.193024,252.467209 352.425018,254.231674 
	C349.450500,254.544693 346.431702,254.717285 343.531006,255.381287 
	C339.913727,256.209351 337.971619,255.640808 337.485504,251.403259 
	C336.956055,246.787918 335.348358,242.346664 333.224731,237.347092 
z"/>
<path fill="#000000" opacity="1.000000" stroke="none" 
	d="
M342.681702,535.954468 
	C343.735260,540.171814 343.712494,543.915344 341.665161,547.444824 
	C339.629974,550.953247 336.593781,552.482544 332.542664,552.388123 
	C328.542358,552.294739 327.347992,549.523682 326.151917,546.441345 
	C320.186035,531.066711 309.082428,521.951599 292.579376,520.557678 
	C276.445404,519.194824 262.185150,523.351685 252.109741,537.192078 
	C251.620117,537.864624 251.206223,538.592773 250.709503,539.259705 
	C248.193909,542.637207 245.329788,545.361328 240.641357,543.719055 
	C236.282257,542.192078 233.959839,538.015076 234.479202,532.915894 
	C235.111191,526.711121 238.640854,521.999329 242.989975,518.080627 
	C268.895142,494.739502 322.963013,493.393494 342.681702,535.954468 
z"/>
<path fill="#000000" opacity="1.000000" stroke="none" 
	d="
M606.137390,444.809052 
	C608.088135,446.820465 608.975464,448.919342 609.343140,451.289062 
	C610.732971,460.246246 610.597473,469.216644 609.183899,478.128601 
	C608.267212,483.907837 604.570618,487.438171 598.151672,487.905701 
	C590.208191,488.484283 582.184082,488.810364 574.252930,487.353943 
	C569.292725,486.443085 566.438049,483.662048 565.530640,478.482544 
	C563.990051,469.688568 564.560791,460.858215 564.933716,452.083832 
	C565.235962,444.971069 569.311279,441.770599 577.512329,441.463745 
	C584.485596,441.202881 591.487122,441.524902 598.469666,441.771057 
	C601.154968,441.865753 603.654175,442.902466 606.137390,444.809052 
z"/>
<path fill="#000000" opacity="1.000000" stroke="none" 
	d="
M674.149536,460.092529 
	C673.969543,466.042694 674.451233,471.514374 673.419006,476.971680 
	C672.138916,483.739716 669.234253,487.305573 662.468689,487.886047 
	C655.047058,488.522858 647.525085,488.748230 640.107056,487.578400 
	C632.367188,486.357819 629.078186,482.752991 628.784668,474.899658 
	C628.517944,467.763611 628.526367,460.603577 628.765442,453.465912 
	C629.023926,445.746704 633.341248,441.772278 641.235779,441.643707 
	C647.050171,441.548981 652.867798,441.640533 658.683899,441.668793 
	C669.647766,441.722076 674.015320,446.085999 674.161133,457.115387 
	C674.172058,457.946106 674.154480,458.777222 674.149536,460.092529 
z"/>
<path fill="#000000" opacity="1.000000" stroke="none" 
	d="
M476.872894,445.117310 
	C477.555542,445.920380 478.166901,446.390045 478.332214,446.983887 
	C481.601776,458.729065 481.663757,470.559540 478.227051,482.205444 
	C476.875366,486.785950 472.112579,487.872711 467.971069,488.019012 
	C460.680298,488.276672 453.335632,488.783264 446.062073,487.486023 
	C439.720367,486.354950 435.909851,482.419891 435.715698,476.021942 
	C435.473541,468.040344 435.498962,460.042816 435.686951,452.058716 
	C435.815033,446.618744 439.413269,442.246765 444.882172,441.940704 
	C453.333099,441.467743 461.838104,441.751099 470.310699,442.016510 
	C472.563965,442.087067 474.785797,443.255280 476.872894,445.117310 
z"/>
<path fill="#000000" opacity="1.000000" stroke="none" 
	d="
M500.666962,471.896332 
	C500.665558,465.257050 500.607147,459.101349 500.679718,452.947205 
	C500.758362,446.276520 504.758942,441.938019 511.427551,441.729553 
	C518.739380,441.500946 526.068359,441.538208 533.382263,441.738953 
	C539.727295,441.913147 543.757629,445.018585 544.693115,451.550812 
	C545.939697,460.254791 546.122498,469.146149 544.582886,477.842865 
	C543.372375,484.680389 540.307678,487.458740 533.466492,487.937836 
	C526.520874,488.424225 519.469666,488.478943 512.540894,487.864502 
	C503.296387,487.044708 500.712097,483.248871 500.666962,471.896332 
z"/>
<path fill="#000000" opacity="1.000000" stroke="none" 
	d="
M223.259857,470.796326 
	C219.502045,467.143250 216.320633,463.456482 215.084641,458.627441 
	C213.997223,454.378998 215.187729,450.548584 218.948639,448.123383 
	C222.778732,445.653503 226.459930,447.043793 229.349014,449.953461 
	C232.974197,453.604523 235.969543,458.411957 242.014313,457.491882 
	C249.467484,456.357452 256.035248,453.166321 260.698883,446.992950 
	C263.010834,443.932587 265.364319,441.504822 269.608246,441.561768 
	C276.314453,441.651794 279.801147,446.344604 277.746399,453.034607 
	C275.330811,460.899384 269.256714,465.604004 262.723053,469.753510 
	C254.133286,475.208771 244.671402,477.185883 234.550797,476.337311 
	C230.155106,475.968750 226.681046,473.884430 223.259857,470.796326 
z"/>
<path fill="#000000" opacity="1.000000" stroke="none" 
	d="
M354.721649,483.399353 
	C341.855438,482.347595 331.457245,477.696167 324.654114,466.688263 
	C322.625031,463.405060 321.856842,459.879730 323.387695,456.212036 
	C326.148468,449.597656 333.716370,448.681885 338.769684,454.675293 
	C343.153625,459.874847 348.493530,462.986328 354.914215,464.912201 
	C358.753204,466.063721 361.738800,465.360352 364.585815,462.889404 
	C365.088654,462.453003 365.566345,461.987793 366.059845,461.540497 
	C371.419128,456.683350 377.357422,456.050629 381.121979,459.934357 
	C384.965912,463.899902 384.052765,470.558960 379.222168,475.552338 
	C372.551819,482.447388 364.520752,484.897675 354.721649,483.399353 
z"/>
<path fill="#000000" opacity="1.000000" stroke="none" 
	d="
M504.874817,618.227295 
	C509.957245,627.048157 510.958954,635.778442 506.284821,644.694702 
	C504.444427,648.205444 501.876862,651.103699 497.530640,651.241943 
	C493.062042,651.384033 490.590179,648.307617 488.705963,644.878418 
	C484.406403,637.053772 484.229279,628.938354 487.950562,620.878906 
	C491.650787,612.865051 498.264221,611.783081 504.874817,618.227295 
z"/>
</svg>