<svg version="1.1" id="Layer_1" xmlns="http://www.w3.org/2000/svg" xmlns:xlink="http://www.w3.org/1999/xlink" x="0px" y="0px"
	 width="100%" viewBox="0 0 736 736" enable-background="new 0 0 736 736" xml:space="preserve">
<path fill="#000000" opacity="1.000000" stroke="none" 
	d="
M82.380051,337.484131 
	C100.230461,300.950287 128.961914,279.173767 168.471756,271.766266 
	C182.663864,269.105377 196.989487,269.446198 211.033005,272.831970 
	C215.795242,273.980103 217.375153,272.346283 219.125885,268.425812 
	C232.420563,238.654648 253.562256,216.100357 282.162323,200.452530 
	C335.650391,171.187759 405.904663,181.521912 448.698853,225.018448 
	C455.282684,231.710297 455.282684,231.710312 464.346710,227.756485 
	C504.753815,210.130508 550.421692,225.385117 573.108582,264.283051 
	C575.213013,267.891113 577.094299,268.877747 581.360962,268.139618 
	C640.887878,257.842133 693.444946,298.180725 702.029053,354.284088 
	C710.518127,409.766510 675.053284,460.109955 620.083435,471.834778 
	C612.759094,473.397034 605.271057,474.331818 597.799133,473.933655 
	C594.195740,473.741608 592.892273,474.947083 591.662720,478.009430 
	C577.806824,512.519653 553.567078,536.582825 517.834473,547.239990 
	C476.725433,559.500610 439.175385,551.533936 406.496918,523.249573 
	C403.004852,520.227112 401.056946,521.052307 398.200897,523.640442 
	C376.446106,543.354614 350.591187,552.293945 321.583740,550.056274 
	C285.173553,547.247620 257.593323,529.193909 239.003662,497.798828 
	C236.368118,493.347809 234.433823,492.376434 229.350983,494.186127 
	C181.677231,511.160004 139.436493,501.627197 103.693283,466.137360 
	C85.580132,448.152649 75.635628,425.600372 72.551155,400.057220 
	C69.928246,378.336456 73.114426,357.657043 82.380051,337.484131 
z"/>
</svg>